# xmcd
#
# Track frame offsets:
#	150
#	16908
#	31389
#	45343
#	58791
#	76183
#	86433
#	94649
#	106441
#	113842
#	125961
#	144484
#	154736
#	168848
#	178689
#	191193
#	204012
#	219900
#	227259
#	243939
#	258378
#	275053
#	286843
#	307638
#
# Disc length: 4379 seconds
#
# Revision: 2
# Processed by: cddbd v1.5.2PL0 Copyright (c) Steve Scherf et al.
# Submitted via: audiograbber 1.83.01
#
DISCID=37111918
DTITLE=Lance James - 50 Goue Jare
DYEAR=2006
DGENRE=Country
TTITLE0=50 Goue Jare
TTITLE1=Mama's don't let your babies grow up to be cowboys
TTITLE2=Ballad of the Green Barets
TTITLE3=Waltzing Maria
TTITLE4=The last cowboy song
TTITLE5=Adios Amigo
TTITLE6=Medley: I love you because
TTITLE7=Medley: Distant Drums
TTITLE8=Mooifontein
TTITLE9=Vicki
TTITLE10=That silver haired daddy of mine
TTITLE11=The farmer and the Lord
TTITLE12=Don't let me cross over
TTITLE13=Bymekaar
TTITLE14=Ahoi Madagaskar Ahoi
TTITLE15=Blue Spanish eyes
TTITLE16=The streets of Laredo
TTITLE17=I walk the line
TTITLE18=No charge
TTITLE19=He stopped loving her today
TTITLE20=Sing
TTITLE21=Dankie
TTITLE22=Deck of cards
TTITLE23=Hoe groot is U - How great Thou art
EXTD=
EXTT0=
EXTT1=
EXTT2=
EXTT3=
EXTT4=
EXTT5=
EXTT6=
EXTT7=
EXTT8=
EXTT9=
EXTT10=
EXTT11=
EXTT12=
EXTT13=
EXTT14=
EXTT15=
EXTT16=
EXTT17=
EXTT18=
EXTT19=
EXTT20=
EXTT21=
EXTT22=
EXTT23=
PLAYORDER=
